<?xml version="1.0" encoding="utf-8"?>
<svg viewBox="0 0 124 124" xmlns="http://www.w3.org/2000/svg">
  <g id="svg-rock" style="">
    <title>Rock Hand</title>
    <circle fill="#800000" cx="62" cy="62" r="62"/>
    <path d="M 35.285 106.183 C 35.315 106.317 35.345 106.452 35.375 106.586 C 35.714 106.498 36.103 106.489 36.384 106.311 C 40.523 103.675 44.742 101.208 49.351 99.449 C 52.662 98.184 56.017 97.031 59.042 95.08 C 61.143 93.725 63.372 92.533 65.641 91.479 C 68.851 89.988 71.748 88.096 74.217 85.566 C 77.933 81.758 82.023 78.398 86.326 75.279 C 87.935 74.113 89.433 72.79 90.943 71.492 C 91.296 71.19 91.489 70.703 91.753 70.299 C 92.345 69.39 92.774 68.298 93.558 67.607 C 95.368 66.008 95.788 64.11 95.317 61.878 C 94.924 60.023 94.482 58.176 94.133 56.313 C 93.628 53.608 92.884 51.002 91.237 48.746 C 90.676 47.977 90.382 47.191 90.387 46.209 C 90.392 45.575 90.114 44.887 89.798 44.312 C 88.288 41.558 86.448 39.033 84.22 36.815 C 83.782 36.378 83.748 36.036 83.848 35.468 C 84.008 34.556 84.304 33.492 83.996 32.707 C 82.993 30.146 81.278 28.229 78.39 27.657 C 75.403 27.066 72.415 27.232 69.417 27.508 C 69.049 27.542 68.579 27.516 68.301 27.316 C 67.22 26.54 66.046 26.51 64.873 26.867 C 62.127 27.701 59.769 29.217 57.706 31.199 C 57.51 31.388 57.315 31.606 57.197 31.847 C 55.759 34.788 53.478 37.087 51.331 39.474 C 47.685 43.525 45.228 48.168 43.998 53.475 C 43.307 56.457 42.59 59.433 41.844 62.402 C 41.629 63.256 41.447 64.197 40.951 64.885 C 38.81 67.865 36.094 70.129 32.475 71.143 C 30.651 71.655 28.779 72.048 27.017 72.725 C 22.875 74.316 18.784 76.038 14.682 77.732 C 14.465 77.822 14.34 78.135 14.172 78.344 C 14.252 78.417 14.331 78.49 14.41 78.562 C 14.689 78.455 14.972 78.355 15.247 78.24 C 17.93 77.116 20.585 75.924 23.298 74.882 C 25.95 73.864 28.605 72.762 31.358 72.126 C 35.233 71.231 38.24 69.151 40.742 66.225 C 41.394 65.461 41.876 64.472 42.18 63.506 C 42.732 61.759 43.079 59.947 43.534 58.168 C 44.231 55.442 44.801 52.673 45.69 50.011 C 47.141 45.671 49.754 42.02 52.856 38.679 C 54.249 37.18 55.712 35.649 56.685 33.879 C 58.592 30.409 61.66 28.675 65.167 27.447 C 66.121 27.113 67.076 27.237 67.974 27.843 C 68.339 28.09 68.878 28.188 69.333 28.175 C 71.444 28.119 73.556 27.888 75.662 27.933 C 78.6 27.996 81.164 28.854 82.828 31.612 C 83.73 33.108 83.707 34.464 83.004 35.974 C 81.701 35.448 80.355 35.14 79.384 33.945 C 78.963 33.425 78.065 33.066 77.368 33.042 C 75.88 32.99 74.383 33.196 72.89 33.312 C 72.31 33.357 71.734 33.441 71.156 33.506 C 71.151 33.618 71.147 33.73 71.142 33.842 C 71.49 33.889 71.842 33.999 72.183 33.97 C 73.525 33.851 74.861 33.669 76.203 33.546 C 77.778 33.402 79.013 33.984 79.853 35.355 C 80.19 35.903 80.547 36.438 80.915 36.965 C 81.177 37.341 81.441 37.726 81.768 38.041 C 81.918 38.186 82.221 38.171 82.455 38.229 C 82.373 38.032 82.323 37.813 82.204 37.641 C 81.843 37.119 81.455 36.614 81.077 36.102 C 81.145 36.026 81.214 35.949 81.282 35.873 C 82.106 36.314 83.086 36.597 83.725 37.226 C 86.01 39.469 87.89 42.046 89.377 44.888 C 89.639 45.388 89.69 45.997 89.839 46.556 C 89.713 46.625 89.587 46.696 89.462 46.765 C 88.778 45.944 87.945 45.203 87.446 44.284 C 86.691 42.891 85.649 42.113 84.105 41.861 C 82.873 41.659 81.661 41.334 80.437 41.075 C 80.334 41.053 80.215 41.11 79.814 41.185 C 80.227 41.494 80.431 41.752 80.683 41.814 C 81.632 42.046 82.589 42.293 83.558 42.389 C 85.289 42.56 86.458 43.377 87.1 45.007 C 87.424 45.83 87.841 46.62 88.261 47.402 C 88.413 47.685 88.695 47.899 88.916 48.145 C 89.001 48.093 89.086 48.041 89.17 47.991 C 89.024 47.616 88.879 47.242 88.71 46.81 C 90.49 48.223 92.708 52.035 92.784 53.86 C 92.558 53.495 92.386 53.215 92.212 52.935 C 92.105 52.968 91.997 53.001 91.889 53.034 C 91.981 53.394 91.98 53.82 92.18 54.104 C 93.232 55.592 93.808 57.168 93.409 59.02 C 93.29 59.569 93.428 60.011 94.182 59.62 C 94.355 60.398 94.496 61.088 94.662 61.77 C 95.202 63.994 94.752 65.862 92.888 67.356 C 92.29 67.835 91.706 68.533 91.492 69.244 C 91.119 70.479 90.343 71.306 89.411 72.068 C 88.628 72.709 87.863 73.375 87.043 73.964 C 82.079 77.529 77.369 81.388 73.084 85.761 C 71.207 87.677 68.986 89.14 66.563 90.326 C 64.038 91.561 61.592 92.961 59.095 94.256 C 56.926 95.38 54.757 96.507 52.543 97.536 C 51.103 98.206 49.585 98.709 48.099 99.279 C 43.532 101.03 39.461 103.701 35.285 106.183 Z" style="stroke: rgb(255, 255, 255); stroke-width: 2.5px;"/>
  </g>
  <g id="svg-paper" style="">
    <title>Paper Hand</title>
    <circle fill="#000080" cx="62" cy="62" r="62"/>
    <path d="M 91.381 24.885 C 91.283 24.085 91.366 23.245 91.068 22.576 C 90.042 20.279 87.994 19.591 85.44 20.625 C 82.486 21.822 79.855 23.598 77.432 25.616 C 73.715 28.71 70.153 31.99 66.498 35.16 C 65.106 36.368 63.642 37.49 62.154 38.696 C 61.912 36.831 61.061 36.123 59.316 36.467 C 58.129 36.701 56.995 37.204 55.838 37.592 C 53.814 38.271 51.834 39.208 49.755 39.571 C 47.228 40.013 45.436 41.179 44.059 43.291 C 41.508 47.204 38.502 50.765 35.355 54.21 C 34.957 54.646 34.642 55.21 34.447 55.771 C 33.14 59.529 31.838 63.29 30.609 67.074 C 29.556 70.316 27.899 73.402 27.99 76.959 C 27.998 77.242 27.61 77.645 27.306 77.807 C 25.689 78.677 24.035 79.477 22.408 80.33 C 22.192 80.443 22.058 80.714 21.887 80.911 C 22.145 80.912 22.448 81.003 22.655 80.9 C 24.221 80.13 25.749 79.279 27.33 78.544 C 28.212 78.134 28.633 77.571 28.684 76.587 C 28.745 75.432 28.775 74.223 29.133 73.143 C 31.044 67.393 33.05 61.673 35.037 55.948 C 35.174 55.553 35.356 55.134 35.635 54.834 C 39.121 51.071 42.304 47.066 45.193 42.83 C 46.13 41.457 47.353 40.65 49.011 40.403 C 51.633 40.011 54.11 39.156 56.501 37.996 C 57.447 37.537 58.516 37.285 59.555 37.071 C 60.197 36.94 60.957 36.945 61.331 37.685 C 61.73 38.477 61.487 39.287 60.738 39.923 C 60.364 40.241 60.009 40.586 59.608 40.865 C 55.236 43.912 50.821 46.9 46.49 50.005 C 43.355 52.252 40.326 54.646 37.261 56.99 C 37.012 57.18 36.852 57.485 36.651 57.736 C 36.724 57.812 36.798 57.888 36.873 57.964 C 37.102 57.819 37.349 57.696 37.555 57.524 C 38.167 57.013 38.723 56.427 39.37 55.969 C 43.623 52.965 47.834 49.897 52.173 47.023 C 57.839 43.272 63.02 38.926 68.136 34.487 C 69.869 32.983 71.613 31.489 73.353 29.992 C 74.421 29.074 75.53 28.199 76.554 27.234 C 78.963 24.965 81.705 23.187 84.623 21.67 C 85.345 21.295 86.159 21.07 86.955 20.868 C 88.133 20.569 89.119 20.961 89.917 21.869 C 90.74 22.807 91.054 23.842 90.409 24.984 C 90.1 25.53 89.727 26.075 89.271 26.499 C 83.629 31.73 77.723 36.67 72.424 42.276 C 70.478 44.334 68.177 46.057 66.046 47.941 C 65.901 48.069 65.817 48.265 65.703 48.43 C 65.769 48.501 65.836 48.572 65.902 48.642 C 66.254 48.451 66.656 48.317 66.948 48.059 C 68.989 46.254 71.126 44.538 73.01 42.579 C 79.739 35.584 87.066 29.256 94.481 23.021 C 95.393 22.254 96.472 21.924 97.623 21.895 C 99.903 21.837 101.466 24.555 100.406 26.814 C 99.997 27.686 99.381 28.484 98.749 29.223 C 96.979 31.293 95.165 33.324 93.348 35.351 C 88.172 41.123 83.126 47.02 77.093 51.959 C 76.229 52.666 75.557 53.615 74.832 54.483 C 74.622 54.735 74.54 55.094 74.399 55.404 C 74.477 55.464 74.556 55.525 74.634 55.585 C 74.804 55.439 74.993 55.31 75.14 55.144 C 76.049 54.116 76.817 52.913 77.874 52.073 C 82.175 48.661 85.783 44.562 89.498 40.573 C 92.172 37.702 94.705 34.7 97.311 31.766 C 98.151 30.821 99.169 30.6 100.198 31.09 C 102.068 31.981 102.874 34.797 101.734 36.516 C 98.908 40.779 96.088 45.036 92.951 49.093 C 90.389 52.406 87.726 55.572 84.587 58.347 C 83.582 59.236 82.626 60.221 81.829 61.297 C 80.537 63.041 79.387 64.891 78.202 66.713 C 78.087 66.891 78.149 67.184 78.129 67.423 C 78.328 67.282 78.572 67.176 78.717 66.992 C 78.942 66.705 79.097 66.364 79.283 66.048 C 80.867 63.37 82.757 60.948 84.982 58.754 C 88.602 55.187 92.122 51.518 95.68 47.888 C 96.259 47.298 96.772 46.634 97.397 46.098 C 98.338 45.29 99.679 45.361 100.244 46.241 C 100.831 47.156 101.322 48.199 100.934 49.278 C 100.412 50.736 99.812 52.192 99.036 53.527 C 96.649 57.633 93.427 61.112 90.349 64.686 C 86.69 68.936 82.87 73.047 80.102 77.989 C 79.587 78.909 78.866 79.766 78.077 80.471 C 73.368 84.677 68.675 88.906 63.851 92.981 C 59.176 96.93 54.177 100.398 48.275 102.357 C 46.954 102.796 45.717 103.489 44.442 104.064 C 44.469 104.178 44.498 104.292 44.526 104.405 C 44.912 104.342 45.329 104.351 45.679 104.202 C 47.229 103.545 48.72 102.735 50.303 102.179 C 53.788 100.953 56.869 99.04 59.823 96.882 C 65.7 92.587 71.094 87.72 76.498 82.86 C 78.831 80.761 80.707 78.363 82.349 75.709 C 83.504 73.841 84.848 72.074 86.249 70.379 C 88.69 67.425 91.249 64.57 93.741 61.659 C 96.315 58.652 98.818 55.586 100.595 52.017 C 101.028 51.148 101.368 50.21 101.59 49.266 C 101.937 47.785 101.028 45.69 99.93 45.16 C 98.755 44.593 97.42 45.047 96.134 46.452 C 95.692 46.936 95.253 47.424 94.813 47.91 C 94.746 47.726 94.792 47.629 94.852 47.541 C 97.311 43.994 99.763 40.442 102.234 36.903 C 102.952 35.875 103.169 34.795 102.771 33.597 C 102.143 31.702 101.104 30.274 98.782 30.195 C 99.044 29.882 99.264 29.673 99.42 29.424 C 100.015 28.469 100.781 27.567 101.132 26.527 C 102.172 23.442 99.699 20.707 96.549 21.455 C 95.552 21.691 94.608 22.299 93.739 22.885 C 92.863 23.477 92.111 24.254 91.381 24.885 Z" style="stroke: rgb(255, 255, 255); stroke-width: 2.5px;"/>
  </g>
  <g id="svg-scissors" style="">
    <title>Scissors Hand</title>
    <circle fill="#008000" cx="62" cy="62" r="62"/>
    <path d="M 39.451 103.428 C 39.488 103.553 39.525 103.678 39.562 103.805 C 39.909 103.736 40.294 103.743 40.594 103.586 C 42.166 102.76 43.709 101.881 45.279 101.049 C 45.678 100.837 46.127 100.707 46.565 100.58 C 47.614 100.274 48.751 100.154 49.708 99.672 C 51.919 98.558 54.097 97.356 56.194 96.041 C 61.703 92.591 66.347 88.042 71.35 83.949 C 71.588 83.754 71.795 83.399 71.829 83.097 C 71.936 82.152 72.533 81.616 73.287 81.225 C 74.319 80.69 75.359 80.156 76.438 79.731 C 80.178 78.258 81.724 73.149 78.842 70.335 C 78.382 69.886 78.455 69.455 78.792 68.95 C 79.354 68.111 79.897 67.255 80.372 66.365 C 80.972 65.239 81.125 64.033 80.681 62.809 C 80.083 61.159 78.793 60.123 77.369 59.24 C 76.265 58.556 75.131 57.949 73.746 58.527 C 73.564 58.603 73.237 58.33 72.978 58.218 C 73.084 57.988 73.132 57.681 73.311 57.543 C 73.865 57.113 74.442 56.698 75.057 56.363 C 79.113 54.151 83.129 51.961 86.774 49.005 C 90.852 45.696 95.417 42.986 99.766 40.01 C 100.853 39.266 101.963 38.549 102.987 37.725 C 103.38 37.409 103.714 36.859 103.811 36.364 C 104.308 33.843 101.949 30.781 98.911 31.657 C 95.899 32.526 92.965 33.543 90.273 35.199 C 88.919 36.031 87.48 36.723 86.078 37.475 C 80.928 40.238 75.601 42.702 71.005 46.406 C 70.15 47.095 69.183 47.645 68.267 48.259 C 67.628 48.687 67.195 48.494 66.893 47.825 C 66.239 46.374 66.299 44.915 66.804 43.44 C 67.727 40.748 68.483 37.986 69.59 35.373 C 71.536 30.782 73.708 26.288 75.753 21.739 C 76.328 20.459 76.921 19.163 77.271 17.813 C 77.658 16.32 77.2 14.921 75.944 13.953 C 74.71 13 73.31 13.117 72.057 13.875 C 71.241 14.37 70.451 15.048 69.903 15.824 C 65.411 22.177 60.842 28.487 57.673 35.659 C 56.721 37.815 55.767 39.978 54.668 42.06 C 54.022 43.287 53.196 44.462 52.256 45.481 C 51.138 46.693 50.249 47.994 49.52 49.47 C 48.947 50.631 48.167 51.714 47.349 52.726 C 46.059 54.322 44.574 55.764 43.321 57.387 C 38.619 63.476 33.992 69.624 29.293 75.716 C 28.753 76.416 28.015 77.051 27.235 77.464 C 24.801 78.753 22.302 79.92 19.831 81.137 C 19.62 81.241 19.423 81.371 19.22 81.49 C 19.237 81.594 19.253 81.698 19.27 81.802 C 19.536 81.783 19.839 81.842 20.062 81.734 C 22.541 80.531 25 79.284 27.482 78.088 C 28.479 77.608 29.248 76.921 29.888 76.025 C 31.028 74.429 32.22 72.87 33.39 71.295 C 37.959 65.141 42.474 58.943 47.701 53.316 C 48.739 52.198 49.542 50.982 50.2 49.609 C 50.721 48.52 51.339 47.394 52.184 46.56 C 53.677 45.086 54.816 43.43 55.661 41.535 C 56.135 40.473 56.682 39.441 57.122 38.366 C 60.337 30.497 65.168 23.589 70.021 16.699 C 70.639 15.821 71.446 14.957 72.363 14.428 C 74.517 13.184 76.575 14.34 76.746 16.813 C 76.792 17.487 76.611 18.23 76.347 18.863 C 75.733 20.329 75.061 21.777 74.311 23.178 C 70.812 29.714 68.431 36.696 66.086 43.692 C 65.566 45.242 65.672 46.784 66.427 48.243 C 66.948 49.249 67.459 49.436 68.432 48.856 C 69.614 48.152 70.747 47.359 71.86 46.548 C 74.537 44.598 77.261 42.756 80.252 41.279 C 83.872 39.491 87.407 37.523 90.922 35.531 C 93.532 34.052 96.315 33.092 99.167 32.233 C 101.366 31.571 103.476 33.833 103.244 35.934 C 103.188 36.446 102.845 37.066 102.435 37.373 C 101.016 38.438 99.501 39.375 98.039 40.384 C 93.978 43.185 89.785 45.818 85.919 48.865 C 83.174 51.028 80.327 52.922 77.233 54.495 C 76.278 54.981 75.324 55.474 74.406 56.026 C 73.781 56.401 73.18 56.842 72.648 57.339 C 72.427 57.545 72.238 58.064 72.348 58.281 C 72.534 58.644 72.934 58.951 73.314 59.141 C 73.543 59.256 73.907 59.069 74.209 59.079 C 74.802 59.098 75.505 58.97 75.965 59.24 C 77.113 59.914 78.255 60.667 79.207 61.588 C 80.515 62.853 80.671 64.455 79.826 66.068 C 79.277 67.117 78.608 68.104 77.932 69.217 C 76.863 68.345 75.88 67.538 74.889 66.742 C 74.768 66.644 74.597 66.607 74.45 66.542 C 74.434 66.729 74.333 66.995 74.419 67.089 C 74.764 67.469 75.173 67.79 75.547 68.144 C 76.584 69.126 77.729 70.022 78.623 71.12 C 80.311 73.191 79.94 76.293 77.934 78.056 C 77.778 78.194 77.572 78.398 77.407 78.383 C 75.826 78.232 74.523 78.824 73.522 79.969 C 72.67 80.944 71.27 81.529 71.193 83.107 C 71.183 83.319 70.88 83.542 70.673 83.716 C 67.984 85.995 65.349 88.346 62.578 90.524 C 57.458 94.546 52.407 98.636 45.805 100.228 C 43.559 100.769 41.561 102.332 39.451 103.428 Z" style="stroke: rgb(255, 255, 255); stroke-width: 2.5px;"/>
  </g>
</svg>
