<svg version="1.1"
     viewBox="0 0 404 404"
     xmlns="http://www.w3.org/2000/svg">

    <g id="bun--top" >
    <title>Top Bun</title>
    <path style="fill: rgb(247, 178, 57);" d="M 368.713 106.059 C 368.713 114.379 361.963 121.119 353.643 121.119 L 350.933 121.119 L 55.353 121.119 L 50.833 121.119 C 46.673 121.119 42.903 119.429 40.183 116.709 C 37.463 113.989 35.773 110.219 35.773 106.059 C 35.773 51.629 79.893 7.499 134.323 7.499 L 270.153 7.499 C 297.363 7.499 322.003 18.529 339.843 36.369 C 357.683 54.209 368.713 78.849 368.713 106.059 Z"/>
    <path style="fill: rgb(224, 155, 45);" d="M 112.439 106.059 C 112.439 51.629 156.559 7.499 210.989 7.499 L 134.322 7.499 C 79.892 7.499 35.772 51.629 35.772 106.059 C 35.772 110.219 37.462 113.989 40.182 116.709 C 42.902 119.429 46.672 121.119 50.832 121.119 L 55.352 121.119 L 127.499 121.119 C 123.339 121.119 119.569 119.429 116.849 116.709 C 114.129 113.989 112.439 110.219 112.439 106.059 Z"/>
    <path style="fill: rgb(255, 255, 255);" d="M 344.818 101.919 C 341.179 101.919 337.985 99.266 337.414 95.558 C 335.217 81.268 328.599 68.258 318.276 57.935 C 315.24 54.899 311.923 52.146 308.418 49.751 C 304.998 47.415 304.119 42.748 306.456 39.327 C 308.791 35.907 313.459 35.028 316.879 37.365 C 321.152 40.284 325.191 43.636 328.883 47.329 C 341.478 59.924 349.555 75.813 352.241 93.279 C 352.87 97.373 350.062 101.202 345.968 101.832 C 345.581 101.891 345.197 101.919 344.818 101.919 Z"/>
    <circle style="fill:#FFFFFF;" cx="295.464" cy="34.824" r="7.5"/>
    <circle style="fill:#333333;" cx="128.723" cy="38.118" r="7.5"/>
    <circle style="fill:#333333;" cx="177.736" cy="38.118" r="7.5"/>
    <circle style="fill:#333333;" cx="226.749" cy="38.118" r="7.5"/>
    <circle style="fill:#333333;" cx="275.763" cy="38.118" r="7.5"/>
  </g>
    <g id="lettuce" style="transform: translateY(-121px);" >
    <title>Lettuce</title>
    <polygon style="fill: rgb(154, 209, 75);" points="350.933 121.119 350.933 156.129 185.433 156.129 102.983 156.129 55.353 156.129 55.353 121.119"/>
    <polygon style="fill: rgb(139, 183, 61);" points="82.933 119.882 82.933 154.892 79.59 154.892 71.897 154.892 55.353 154.892 55.353 119.882"/>
  </g>
    <g id="patty" style="transform: translateY(-157px);" >
    <title>Patty</title>
    <polygon style="fill: rgb(244, 222, 59);" points="185.433 156.129 185.433 158.379 145.333 198.479 102.983 156.129">
      <title>Cheese</title>
    </polygon>
    <path style="fill: rgb(178, 114, 20);" d="M 350.933 156.129 C 360.103 156.129 368.403 159.849 374.413 165.859 C 380.423 171.869 384.143 180.169 384.143 189.339 C 384.143 207.679 369.273 222.549 350.933 222.549 L 55.353 222.549 L 53.543 222.549 C 44.373 222.549 36.073 218.829 30.063 212.819 C 24.053 206.809 20.333 198.509 20.333 189.339 C 20.333 170.999 35.203 156.129 53.543 156.129 L 55.353 156.129 L 102.983 156.129 L 145.333 198.479 L 185.433 158.379 L 185.433 156.129 L 350.933 156.129 Z"/>
    <path style="fill:#995E10;" d="M91.333,189.339c0-12.158,6.539-22.786,16.287-28.573l-4.637-4.637h-47.63h-1.81    c-18.34,0-33.21,14.87-33.21,33.21c0,9.17,3.72,17.47,9.73,23.48s14.31,9.73,23.48,9.73h1.81h69.19c-9.17,0-17.47-3.72-23.48-9.73    S91.333,198.509,91.333,189.339z"/>
    <path style="fill: rgb(255, 255, 255);" d="M 361.143 196.839 C 357.001 196.839 353.643 193.481 353.643 189.339 C 353.643 188.416 353.209 187.789 352.846 187.425 C 352.483 187.062 351.856 186.629 350.933 186.629 C 346.791 186.629 343.433 183.271 343.433 179.129 C 343.433 174.987 346.791 171.629 350.933 171.629 C 357.311 171.629 361.516 174.881 363.454 176.82 C 365.392 178.758 368.643 182.963 368.643 189.339 C 368.643 193.481 365.285 196.839 361.143 196.839 Z"/>
  </g>
    <g id="tomato"style="transform: translateY(-224px);" >
    <title>Tomato</title>
    <polygon style="fill: rgb(249, 84, 40);" points="350.933 222.549 350.933 257.559 315.113 257.559 232.663 257.559 55.353 257.559 55.353 222.549"/>
    <polygon style="fill: rgb(229, 71, 40);" points="82.933 222.549 82.933 257.559 79.59 257.559 71.897 257.559 55.353 257.559 55.353 222.549"/>
  </g>
    <g id="bun--bottom"  style="transform: translateY(-324px);" >
    <title>Bottom Bun</title>
    <path style="fill: rgb(247, 178, 57);" d="M 353.643 323.979 C 361.963 323.979 368.713 330.719 368.713 339.039 L 368.713 357.409 C 368.713 379.259 350.993 396.979 329.133 396.979 L 75.343 396.979 C 53.483 396.979 35.773 379.259 35.773 357.409 L 35.773 339.039 C 35.773 330.719 42.513 323.979 50.833 323.979 L 53.543 323.979 L 350.933 323.979 L 353.643 323.979 Z"/>
    <path style="fill: rgb(224, 155, 45);" d="M 127.106 357.409 L 127.106 339.039 C 127.106 330.719 133.846 323.979 142.166 323.979 L 53.543 323.979 L 50.833 323.979 C 42.513 323.979 35.773 330.719 35.773 339.039 L 35.773 357.409 C 35.773 379.259 53.483 396.979 75.343 396.979 L 166.676 396.979 C 144.816 396.979 127.106 379.259 127.106 357.409 Z"/>
    <path style="fill: rgb(255, 255, 255);" d="M 345.713 371.342 C 341.571 371.342 338.213 367.984 338.213 363.842 L 338.213 348.509 C 338.213 344.367 341.571 341.009 345.713 341.009 C 349.855 341.009 353.213 344.367 353.213 348.509 L 353.213 363.842 C 353.213 367.984 349.855 371.342 345.713 371.342 Z"/>
  </g>
    <path style="fill: rgb(51, 51, 51);" d="M 368.431 248.446 L 368.431 227.53 C 388.576 224.396 404 207.737 404 187.711 C 404 167.685 388.576 151.028 368.431 147.892 L 368.431 127.174 C 379.479 125.343 387.906 116.164 387.906 105.144 C 387.906 47.168 338.296 0 277.315 0 L 135.685 0 C 74.704 0 25.094 47.168 25.094 105.145 C 25.094 116.165 33.522 125.344 44.569 127.175 L 44.569 147.893 C 24.424 151.028 9 167.686 9 187.712 C 9 207.738 24.424 224.397 44.569 227.531 L 44.569 248.447 C 24.424 251.581 9 268.24 9 288.266 C 9 302.954 17.298 315.83 29.667 322.889 C 26.795 326.597 25.094 331.173 25.094 336.121 L 25.094 354.333 C 25.094 380.066 47.115 401 74.178 401 L 338.821 401 C 365.886 401 387.905 380.066 387.905 354.333 L 387.905 336.121 C 387.905 331.173 386.203 326.597 383.332 322.889 C 395.701 315.829 403.999 302.953 403.999 288.265 C 404 268.239 388.576 251.58 368.431 248.446 Z M 60.21 247.908 L 60.21 228.069 L 352.789 228.069 L 352.789 247.908 L 60.21 247.908 Z M 305.672 262.779 L 282.379 284.927 L 259.083 262.779 L 305.672 262.779 Z M 60.21 147.354 L 60.21 127.514 L 352.789 127.514 L 352.789 147.354 L 60.21 147.354 Z M 170.456 162.226 L 147.161 184.372 L 123.868 162.226 L 170.456 162.226 Z M 40.736 105.145 C 40.736 55.367 83.329 14.871 135.685 14.871 L 277.317 14.871 C 329.671 14.871 372.266 55.367 372.266 105.145 C 372.266 109.28 368.728 112.644 364.38 112.644 L 360.612 112.644 L 52.39 112.644 L 48.621 112.644 C 44.274 112.644 40.736 109.28 40.736 105.145 Z M 24.642 187.711 C 24.642 173.658 36.666 162.226 51.447 162.226 L 52.39 162.226 L 101.748 162.226 L 141.631 200.145 C 143.158 201.598 145.16 202.324 147.161 202.324 C 149.163 202.324 151.164 201.598 152.69 200.145 L 192.575 162.226 L 360.609 162.226 L 361.552 162.226 C 376.333 162.226 388.357 173.658 388.357 187.711 C 388.357 201.764 376.333 213.197 361.552 213.197 L 360.609 213.197 L 52.39 213.197 L 51.447 213.197 C 36.667 213.197 24.642 201.764 24.642 187.711 Z M 364.379 328.623 C 368.727 328.623 372.264 331.986 372.264 336.12 L 372.264 354.332 C 372.264 371.864 357.262 386.128 338.822 386.128 L 74.178 386.128 C 55.737 386.128 40.736 371.864 40.736 354.332 L 40.736 336.12 C 40.736 331.986 44.274 328.623 48.621 328.623 L 51.447 328.623 L 361.552 328.623 L 364.379 328.623 Z M 361.553 313.751 L 51.448 313.751 C 36.667 313.751 24.643 302.318 24.643 288.265 C 24.643 274.212 36.667 262.779 51.448 262.779 L 52.391 262.779 L 236.964 262.779 L 276.849 300.7 C 278.313 302.093 280.303 302.877 282.379 302.877 C 284.452 302.877 286.441 302.094 287.907 300.7 L 327.791 262.779 L 360.61 262.779 L 361.553 262.779 C 376.334 262.779 388.358 274.212 388.358 288.265 C 388.358 302.318 376.333 313.751 361.553 313.751 Z">
    <title>Outline</title>
  </path>
</svg>
